<svg width="24" height="24" viewBox="0 0 24 24" fill="none" xmlns="http://www.w3.org/2000/svg">
<path d="M24 6.29834C23.912 6.77979 23.8447 7.26642 23.7412 7.74269C23.3063 9.69955 22.6022 11.5684 21.7688 13.3855C21.277 14.4467 20.7541 15.4977 20.1846 16.5175C19.1959 18.288 17.6583 19.1939 15.629 19.2147C13.2166 19.2354 10.8041 19.2354 8.39172 19.2147C6.36238 19.1991 4.82485 18.288 3.82571 16.5227C2.32959 13.8825 1.12856 11.1232 0.362381 8.18273C0.170837 7.44243 0.0310613 6.69179 0 5.87384C0.0983607 5.94632 0.16566 5.98773 0.227783 6.0395C1.3667 6.90404 2.47455 7.80999 3.64452 8.62276C5.42019 9.85486 7.3667 10.7505 9.49957 11.1801C12.7869 11.8376 15.8878 11.3251 18.8283 9.73061C20.5574 8.7936 22.0638 7.5615 23.5341 6.27246C23.6842 6.13786 23.8447 6.00844 23.9948 5.87902V6.29834H24Z" fill="white"/>
<path d="M5.41501 8.54512C5.46678 8.571 5.51855 8.60207 5.56514 8.62795C5.69456 8.70043 5.78774 8.7522 5.88093 8.80396C8.03969 9.91699 10.1156 10.4606 12.2278 10.4657C14.3865 10.4657 16.478 9.87558 18.6316 8.66419C18.5177 8.32769 18.321 7.99637 18.0311 7.67023C17.4823 7.04383 16.7731 6.56238 15.8619 6.18964C13.9827 5.42346 11.9379 5.2578 9.78947 5.68748C8.49007 5.94633 7.42881 6.41742 6.54874 7.12148C6.01035 7.55634 5.63761 8.02226 5.41501 8.5503V8.54512Z" fill="white"/>
<path d="M19.5789 8.08956C20.1225 7.722 21.981 6.46919 22.5557 5.99292L19.113 7.28714C19.17 7.36479 19.2269 7.44762 19.2787 7.53563C19.3926 7.722 19.4909 7.90836 19.5789 8.09473V8.08956Z" fill="white"/>
<path d="M4.41588 8.08956C3.87231 7.722 2.01381 6.46919 1.43918 5.99292L4.8818 7.28714C4.82486 7.36479 4.76791 7.44762 4.71614 7.53563C4.60225 7.722 4.50389 7.90836 4.41588 8.09473V8.08956Z" fill="white"/>
</svg>
