<svg width="24" height="20" viewBox="0 0 24 20" fill="none" xmlns="http://www.w3.org/2000/svg">
<path d="M16.9219 8.77164C16.9219 9.46394 16.6526 10.0409 16.1911 10.5024C15.6911 11.0024 15.1142 11.2332 14.4603 11.2332H7.15264L3.96034 13.6178C3.84495 13.7332 3.72957 13.7332 3.57572 13.6563C3.42187 13.5793 3.38341 13.4639 3.38341 13.3101V11.2332C2.69111 11.2332 2.11418 11.0024 1.65264 10.5024C1.15264 10.0409 0.921875 9.46394 0.921875 8.77164V2.61779C0.921875 1.96394 1.15264 1.38702 1.65264 0.887019C2.11418 0.425481 2.69111 0.15625 3.38341 0.15625H14.4603C15.1142 0.15625 15.6911 0.425481 16.1911 0.887019C16.6526 1.38702 16.9219 1.96394 16.9219 2.61779V8.77164ZM20.6142 6.3101C21.268 6.3101 21.8449 6.57933 22.3449 7.04087C22.8065 7.54087 23.0757 8.11779 23.0757 8.77164V14.9255C23.0757 15.6178 22.8065 16.1947 22.3449 16.6562C21.8449 17.1562 21.268 17.387 20.6142 17.387H19.3834V19.4639C19.3834 19.6178 19.3065 19.7332 19.1526 19.8101C18.9988 19.887 18.8834 19.887 18.8065 19.7716L15.6142 17.387H10.768C10.0757 17.387 9.4988 17.1562 9.03726 16.6562C8.53726 16.1947 8.30649 15.6178 8.30649 14.9255V12.4639H14.4603C15.4603 12.4639 16.3449 12.1178 17.0757 11.387C17.768 10.6947 18.1526 9.8101 18.1526 8.77164V6.3101H20.6142Z" fill="white"/>
</svg>
