<svg class="svg-icon" style="width: 1em;height: 1em;vertical-align: middle;fill: currentColor;overflow: hidden;" viewBox="0 0 1024 1024" version="1.1" xmlns="http://www.w3.org/2000/svg"><path d="M511.75280786 141.21142578L882.78857422 291.35607934v51.91040039h-46.27441406c-3.21350074 17.25402856-20.17089844 24.9664309-50.87219239 23.23608374H236.47937036c-30.35522437 0-45.53283692-7.76184106-45.53283692-23.23608374H141.21142578v-51.91040039L511.75280786 141.21142578zM174.58239746 766.85534692h673.9453125c18.440552 0 33.42041039 14.93041969 33.4204104 33.42040968v40.83618188H141.21142578v-40.83618188c0-18.48999 14.9798584-33.42041039 33.42041039-33.42040968z m16.75964356-27.29003906v-26.9439702c0-11.86523438 9.29443336-19.42932129 27.93273949-22.54394532h20.36865187V393.69372583h99.22302246v296.38366651h51.16882324V393.69372583H489.25830055v296.38366651h46.81823778V393.69372583h100.45898389v296.38366651h49.38903809V393.69372583h98.58032274v296.38366651h20.61584473c16.11694312 0 26.69677734 7.5146482 31.88781738 22.54394532v26.9439702H191.34204102z"  /></svg>