<?xml version="1.0" encoding="UTF-8"?>
<svg version="1.1" xmlns="http://www.w3.org/2000/svg" width="40" height="40">
<path d="M0 0 C4.79162763 3.85992226 7.39140936 6.60921042 8.25 12.75 C8.51553311 18.28470575 7.40291759 22.1765178 3.83984375 26.5390625 C-0.08715979 30.45678234 -3.73620346 31.81639817 -9.2578125 32.04296875 C-14.92765963 31.51864119 -18.52992487 28.9027799 -22.6875 25.1875 C-25.42153202 20.71362943 -26.15313622 17.02908267 -25.75 11.8125 C-24.08051156 5.8868466 -20.73909638 2.24250376 -15.75 -1.1875 C-10.5369628 -2.94650028 -4.98000751 -2.15045779 0 0 Z M-20.625 8.0625 C-22.11751074 11.71085958 -22.42896674 14.96502181 -21.75 18.8125 C-19.52863437 23.17295847 -17.31432971 25.94527421 -12.75 27.8125 C-7.92276908 28.34885899 -5.77109214 28.33267901 -1.4375 26.125 C2.7169881 22.55020791 4.07641779 20.37473989 4.6875 14.875 C4.50994127 10.5974487 3.06013746 8.07833542 0.25 4.8125 C-3.2121961 1.92733658 -6.23796884 1.27332135 -10.7578125 1.4609375 C-15.13454766 2.23330253 -17.8639496 4.74923952 -20.625 8.0625 Z " fill="#494949" transform="translate(28.75,5.1875)"/>
<path d="M0 0 C2.64 0 5.28 0 8 0 C8 3.63 8 7.26 8 11 C8.66 11 9.32 11 10 11 C10 11.66 10 12.32 10 13 C6.7 13 3.4 13 0 13 C0 12.34 0 11.68 0 11 C0.66 11 1.32 11 2 11 C2 8.36 2 5.72 2 3 C1.34 3 0.68 3 0 3 C0 2.01 0 1.02 0 0 Z " fill="#494949" transform="translate(15,17)"/>
<path d="M0 0 C1.65 0 3.3 0 5 0 C5.33 1.65 5.66 3.3 6 5 C4.35 5.33 2.7 5.66 1 6 C-0.0625 4.125 -0.0625 4.125 -1 2 C-0.67 1.34 -0.34 0.68 0 0 Z " fill="#494949" transform="translate(17,10)"/>
</svg>
