<?xml version="1.0" encoding="UTF-8"?>
<svg version="1.1" xmlns="http://www.w3.org/2000/svg" width="1160" height="312">
<path d="M0 0 C2.2776477 -0.00961134 4.55435386 -0.04065861 6.83178711 -0.07226562 C20.32054894 -0.16965246 33.31526301 1.7526397 46.31420898 5.42773438 C47.04816895 5.63495117 47.78212891 5.84216797 48.53833008 6.05566406 C72.87339776 13.27180623 94.05525326 26.93322167 112.37670898 44.24023438 C113.49819336 45.28244141 113.49819336 45.28244141 114.64233398 46.34570312 C124.65347799 55.95430113 132.55561554 67.19976173 139.37670898 79.24023438 C139.70380859 79.81515625 140.0309082 80.39007813 140.36791992 80.98242188 C149.88442873 97.99144054 155.89723612 116.9388206 158.37670898 136.24023438 C158.57006836 137.50673828 158.57006836 137.50673828 158.76733398 138.79882812 C163.8633047 177.4879742 152.15200041 218.84862859 128.96655273 249.94335938 C125.72473358 254.15415372 122.18394372 258.05116621 118.54077148 261.91992188 C116.25142239 264.30631675 116.25142239 264.30631675 113.93920898 267.36523438 C109.89586281 271.90167155 105.15109053 275.50133558 100.37670898 279.24023438 C99.44600586 279.98660156 98.51530273 280.73296875 97.55639648 281.50195312 C71.08670013 302.16562617 39.02304082 312.61678454 5.62573242 312.61083984 C2.90925885 312.61518234 0.19445602 312.65152309 -2.52172852 312.68945312 C-27.56538204 312.85060408 -50.72765319 306.19413344 -72.62329102 294.24023438 C-73.69321289 293.66273438 -74.76313477 293.08523438 -75.86547852 292.49023438 C-88.09839514 285.62709154 -98.5290964 276.87625278 -108.62329102 267.24023438 C-109.37739258 266.52738281 -110.13149414 265.81453125 -110.90844727 265.08007812 C-115.59941766 260.53372339 -120.00165544 255.69532296 -123.62329102 250.24023438 C-123.62329102 249.58023438 -123.62329102 248.92023438 -123.62329102 248.24023438 C-122.44883423 248.23436813 -121.27437744 248.22850189 -120.06433105 248.22245789 C-108.8874098 248.16474573 -97.71067413 248.0917414 -86.53394318 248.00451946 C-80.79062862 247.96017037 -75.04737927 247.92084079 -69.30395508 247.89379883 C-63.74055813 247.86740617 -58.17741713 247.82676354 -52.61418152 247.77704811 C-50.51282484 247.76061838 -48.41142416 247.74895803 -46.31001282 247.74262047 C-27.20281054 247.67928196 -7.85885495 246.46610603 10.68920898 241.55273438 C11.66865479 241.29927246 12.64810059 241.04581055 13.65722656 240.78466797 C32.72995656 235.62452175 50.28155081 227.33539255 64.37670898 213.24023438 C65.08569336 212.53125 65.79467773 211.82226562 66.52514648 211.09179688 C82.53240915 194.10324608 87.06349304 173.03557814 86.68139648 150.49023438 C85.94840621 130.30574175 76.17366063 109.8930492 61.46655273 95.98632812 C44.61749747 81.90870625 23.62661967 72.91623879 1.32299805 74.37451172 C-5.34263535 74.97892463 -11.67562631 75.92444579 -18.06079102 77.99023438 C-20.39672852 78.48632812 -20.39672852 78.48632812 -22.62329102 78.24023438 C-26.3336143 75.46065772 -28.88007523 71.9447895 -31.62329102 68.24023438 C-33.073088 66.4416532 -34.53144602 64.6499392 -35.99829102 62.86523438 C-36.73821289 61.95 -37.47813477 61.03476562 -38.24047852 60.09179688 C-40.78098227 57.05152189 -43.42561941 54.14017296 -46.12329102 51.24023438 C-50.34281695 46.69982364 -54.32857332 42.02263278 -58.20922852 37.18945312 C-60.05907412 34.92952848 -61.93351211 32.71227022 -63.84985352 30.50976562 C-64.40229736 29.87409668 -64.95474121 29.23842773 -65.52392578 28.58349609 C-66.6167411 27.33029845 -67.71348262 26.08051183 -68.81445312 24.83447266 C-72.62329102 20.45973257 -72.62329102 20.45973257 -72.62329102 18.24023438 C-49.46489017 6.55725111 -26.03732351 0.06607759 0 0 Z " fill="#E0241A" transform="translate(153.623291015625,-0.240234375)"/>
<path d="M0 0 C0.51949219 0.47034668 1.03898438 0.94069336 1.57421875 1.42529297 C23.69238907 21.71122768 35.39802793 48.62557891 36.87207031 78.53979492 C37.78583995 105.41985171 29.21785313 132.87017416 11 153 C10.33871094 153.80179688 9.67742187 154.60359375 8.99609375 155.4296875 C-8.92318455 176.61601654 -35.52218178 189.42003532 -63 192 C-92.732633 194.03341435 -121.56570684 185.75522986 -144.44140625 166.359375 C-163.15313232 150.03937332 -175.98980485 129.49736303 -181 105 C-181.22300781 103.97261719 -181.44601562 102.94523438 -181.67578125 101.88671875 C-186.90352839 73.89871193 -180.3943363 44.47244429 -164.87109375 20.74609375 C-162.67659571 17.7350383 -160.39278531 14.85577954 -158 12 C-157.15566406 10.99195313 -156.31132812 9.98390625 -155.44140625 8.9453125 C-136.89698643 -12.52573907 -110.46292683 -25.24464583 -82.29370117 -27.65283203 C-52.12618807 -29.63851174 -22.53791996 -20.48038513 0 0 Z M-117 44 C-128.65874141 57.14818414 -132.17405579 72.53853347 -131.21142578 89.69335938 C-129.76946705 105.42502921 -121.17785952 117.59105206 -109.80859375 128.0078125 C-95.98273035 139.4345547 -80.30408033 141.32404998 -63 140 C-48.38762174 137.51500288 -36.39312777 129.22737634 -27 118 C-22.45842476 111.49898827 -18.92490337 104.71442042 -17 97 C-16.81824219 96.27683594 -16.63648438 95.55367188 -16.44921875 94.80859375 C-14.5589061 82.99003032 -15.4107607 71.06280203 -20 60 C-20.32742188 59.1440625 -20.65484375 58.288125 -20.9921875 57.40625 C-26.88127681 43.82265713 -39.30711135 33.48765713 -52.8125 28.125 C-75.79861854 19.66969208 -100.24128943 26.44905948 -117 44 Z " fill="#E0241A" transform="translate(531,74)"/>
<path d="M0 0 C120.97554348 0 120.97554348 0 140.16015625 18.046875 C151.27484828 29.84591113 155.14207533 44.19286408 155.05957031 60.04882812 C154.52081339 77.69532534 146.38101172 89.19784078 134 101 C134.845625 101.53367187 135.69125 102.06734375 136.5625 102.6171875 C149.46091827 110.9851696 156.51958124 120.16457032 160.61328125 135.26171875 C163.1079628 152.92608002 160.85198403 169.944638 151 185 C139.57049826 200.16158394 123.0600244 208.18737602 104.6953125 211.4921875 C70.11821378 216.24379726 34.90205654 213 0 213 C0 142.71 0 72.42 0 0 Z M51 42 C51 56.52 51 71.04 51 86 C56.259375 86.061875 61.51875 86.12375 66.9375 86.1875 C68.578396 86.21481201 70.21929199 86.24212402 71.90991211 86.27026367 C84.39643463 86.47723508 84.39643463 86.47723508 95.33984375 81.1328125 C95.86707031 80.47023437 96.39429688 79.80765625 96.9375 79.125 C97.48277344 78.46757812 98.02804687 77.81015625 98.58984375 77.1328125 C102.77733497 70.79937703 102.7223014 64.38352545 102 57 C100.15480467 50.65651766 96.6362428 47.22866494 91.0625 43.8125 C86.01585588 41.82442808 80.76895124 41.8809242 75.4140625 41.90234375 C74.12967285 41.90484131 72.8452832 41.90733887 71.52197266 41.90991211 C69.09797119 41.92356812 69.09797119 41.92356812 66.625 41.9375 C58.890625 41.9684375 58.890625 41.9684375 51 42 Z M51 121 C51 137.17 51 153.34 51 170 C57.435 170.0825 63.87 170.165 70.5 170.25 C72.51544922 170.28641602 74.53089844 170.32283203 76.60742188 170.36035156 C78.22785379 170.37204801 79.84829758 170.38223757 81.46875 170.390625 C82.70286621 170.4213208 82.70286621 170.4213208 83.96191406 170.45263672 C91.00062728 170.45683142 96.14696197 168.49074749 101.4609375 163.8515625 C107.59142977 156.72017353 109.5628916 151.56660199 109.375 142.1015625 C108.45966833 134.53100679 104.67993265 128.89126611 98.84375 124.15625 C93.45123899 120.77450581 88.73219206 120.73102353 82.54296875 120.8046875 C81.74201782 120.80670166 80.94106689 120.80871582 80.11584473 120.81079102 C77.1396711 120.8212115 74.16357947 120.84913399 71.1875 120.875 C64.525625 120.91625 57.86375 120.9575 51 121 Z " fill="#E0241A" transform="translate(794,50)"/>
<path d="M0 0 C3.43889667 3.27525428 3.43889667 3.27525428 4.59082031 5.57910156 C-2.99350215 16.84850378 -10.7314856 27.95013271 -19.00634766 38.72509766 C-20.02754696 40.07473001 -21.02926423 41.4391703 -22.01904297 42.81201172 C-22.55126465 43.54597168 -23.08348633 44.27993164 -23.63183594 45.03613281 C-24.11531494 45.71264893 -24.59879395 46.38916504 -25.09692383 47.08618164 C-25.52996826 47.57884521 -25.9630127 48.07150879 -26.40917969 48.57910156 C-27.06917969 48.57910156 -27.72917969 48.57910156 -28.40917969 48.57910156 C-29.60397335 47.11780004 -30.73933889 45.60773834 -31.84667969 44.07910156 C-39.83510186 33.8844906 -51.85867334 26.25987384 -64.70996094 23.86035156 C-81.51044064 22.10979507 -97.98173664 24.14823917 -111.58496094 35.02832031 C-122.48008238 44.28041973 -129.32867779 55.58788806 -132.40917969 69.57910156 C-133.90155026 87.92187971 -131.08189153 103.65692184 -119.22558594 118.27050781 C-108.37108781 129.94488593 -94.80254329 136.40197948 -78.91479492 137.02807617 C-62.94456411 137.32379498 -49.30165595 133.22061577 -37.06152344 122.52832031 C-33.58912991 119.18196647 -30.58654627 115.93383472 -28.40917969 111.57910156 C-25.14623211 112.66675075 -24.78748051 113.06761373 -22.94824219 115.76269531 C-22.48289062 116.43453857 -22.01753906 117.10638184 -21.53808594 117.79858398 C-21.04179688 118.53052979 -20.54550781 119.26247559 -20.03417969 120.01660156 C-18.96495314 121.56422739 -17.89460076 123.11107588 -16.82324219 124.65722656 C-16.26668945 125.46353516 -15.71013672 126.26984375 -15.13671875 127.10058594 C-11.75316856 131.95499543 -8.2564176 136.72809819 -4.77490234 141.51245117 C-3.76805685 142.90022673 -2.76565147 144.29123881 -1.76855469 145.68603516 C-0.89831795 146.89792734 -0.01405013 148.09994064 0.88769531 149.28857422 C3.58861953 152.98268932 3.58861953 152.98268932 3.59863281 155.69628906 C-3.91233474 169.72840673 -26.37240686 179.80005844 -40.83691406 184.34130859 C-71.01520588 193.20457721 -101.39061223 191.25406075 -129.27758789 176.14770508 C-144.87107684 167.38741837 -158.98059621 154.88457989 -168.40917969 139.57910156 C-169.16908203 138.43634766 -169.16908203 138.43634766 -169.94433594 137.27050781 C-184.70583783 114.27880793 -189.04011962 84.25353183 -183.88745117 57.65625 C-177.45013494 28.16163744 -160.41299021 3.70214853 -135.42382812 -13.12939453 C-92.57176726 -40.59999583 -36.83152297 -34.11194521 0 0 Z " fill="#E0241A" transform="translate(769.4091796875,76.4208984375)"/>
<path d="M0 0 C0.87269531 0.69480469 1.74539063 1.38960937 2.64453125 2.10546875 C3.90330078 3.13607422 3.90330078 3.13607422 5.1875 4.1875 C6.32251953 5.10595703 6.32251953 5.10595703 7.48046875 6.04296875 C9 8 9 8 9.0390625 10.31640625 C7.6497478 13.90459873 5.5195566 16.73357464 3.1875 19.75 C2.18594742 21.0782578 1.1860087 22.40773372 0.1875 23.73828125 C-0.59560547 24.77782959 -0.59560547 24.77782959 -1.39453125 25.83837891 C-4.60798606 30.16501043 -7.67567961 34.59564285 -10.76293945 39.01269531 C-14.08299642 43.74694623 -17.50524049 48.3932367 -21 53 C-24.2432402 51.47426082 -26.04333863 50.04448036 -28.3125 47.25 C-37.42698438 36.59720602 -49.7873193 29.09513467 -64.00927734 27.81982422 C-81.46868029 26.73372089 -94.87968394 31.30131965 -109.25 41.25 C-121.09156344 53.09156344 -127.90955522 67.72375123 -128.375 84.5 C-127.91974742 100.26312064 -122.06943499 114.68288402 -111 126 C-99.41263095 135.77737126 -86.98889206 141.61671318 -71.6875 141.4375 C-70.77178223 141.42992676 -69.85606445 141.42235352 -68.91259766 141.41455078 C-53.07314415 141.03176632 -38.93788564 134.46607327 -28 123 C-26.23818295 120.72126841 -24.63263994 118.37474901 -23 116 C-22.34 116 -21.68 116 -21 116 C-19.12245077 118.44326032 -17.36169905 120.89626425 -15.625 123.4375 C-14.54181148 124.9974964 -13.45847381 126.55738923 -12.375 128.1171875 C-11.818125 128.92381836 -11.26125 129.73044922 -10.6875 130.56152344 C-8.02316796 134.41154492 -5.32451849 138.23710988 -2.625 142.0625 C-2.1501416 142.73917725 -1.6752832 143.41585449 -1.18603516 144.11303711 C2.12050264 148.81049355 5.53042458 153.42177137 9 158 C1.43707874 173.58602026 -19.57892588 183.02353639 -35.00292969 188.74267578 C-38.94876516 190.08930323 -42.92981212 191.109185 -47 192 C-47.99386719 192.22300781 -48.98773437 192.44601562 -50.01171875 192.67578125 C-78.32682832 198.0052577 -108.2333149 191.5868468 -132.25390625 175.87109375 C-135.2649617 173.67659571 -138.14422046 171.39278531 -141 169 C-142.00804687 168.15566406 -143.01609375 167.31132812 -144.0546875 166.44140625 C-163.76826759 149.41135016 -176.77976925 124.90774646 -180 99 C-180.28849847 94.2461825 -180.33429691 89.51169066 -180.3125 84.75 C-180.30686035 83.46383789 -180.3012207 82.17767578 -180.29541016 80.85253906 C-180.18014982 71.84853882 -179.63623872 63.65764761 -177 55 C-176.80664062 54.34209473 -176.61328125 53.68418945 -176.4140625 53.00634766 C-171.68734852 37.23239862 -164.17862821 23.1655055 -153 11 C-152.55285645 10.51047852 -152.10571289 10.02095703 -151.64501953 9.51660156 C-132.0494064 -11.70020716 -105.3603829 -24.06269401 -76.56640625 -25.8984375 C-48.79104169 -26.68941174 -21.10193345 -18.45075675 0 0 Z " fill="#E0241A" transform="translate(1149,72)"/>
<path d="M0 0 C24.67895547 7.62758265 49.35112723 15.27569726 74 23 C74.12407227 24.08249023 74.24814453 25.16498047 74.37597656 26.28027344 C74.54726716 27.72333804 74.71883118 29.16637021 74.890625 30.609375 C74.97135254 31.32013184 75.05208008 32.03088867 75.13525391 32.76318359 C76.61594628 45.04587934 81.45959648 57.16048575 89 67 C88.86368164 66.08057617 88.86368164 66.08057617 88.72460938 65.14257812 C86.90697821 52.68015317 85.50601713 40.60571113 86 28 C90.78345141 28.58173844 95.1569406 29.53681014 99.7421875 31.00952148 C100.37570129 31.21127991 101.00921509 31.41303833 101.66192627 31.62091064 C103.73466396 32.28241499 105.80479001 32.95172538 107.875 33.62109375 C109.3277959 34.08621832 110.78076114 34.55081427 112.23388672 35.01490784 C116.0467391 36.23403864 119.85747065 37.45966552 123.66772461 38.68688965 C129.03205512 40.41332471 134.39927026 42.13077566 139.76611328 43.84938049 C142.61937741 44.76310561 145.47186399 45.67919721 148.32373047 46.59727478 C149.6350893 47.01855025 150.94644989 47.43982026 152.2578125 47.86108398 C153.3936377 48.2266893 154.52946289 48.59229462 155.69970703 48.96897888 C159.11588463 50.03620269 162.55870646 51.01677327 166 52 C166 59.26 166 66.52 166 74 C112.87 74 59.74 74 5 74 C0.37774835 57.82211924 -2.51168271 43.79720109 -2.28125 27.1484375 C-2.24953242 24.84098344 -2.24019995 22.53421521 -2.234375 20.2265625 C-2.22522125 18.73176257 -2.21485073 17.23696947 -2.203125 15.7421875 C-2.19887512 15.06606415 -2.19462524 14.3899408 -2.19024658 13.69332886 C-2.01640198 2.01640198 -2.01640198 2.01640198 0 0 Z " fill="#E0241A" transform="translate(2,131)"/>
<path d="M0 0 C4.82013663 4.01353144 9.3441508 8.21791338 13.74609375 12.68359375 C14.36090103 13.30218765 14.97570831 13.92078156 15.60914612 14.55812073 C18.20692186 17.17204823 20.79864894 19.79194184 23.39086914 22.41137695 C32.60940004 31.7729168 32.60940004 31.7729168 42.35180664 40.57885742 C45.03793911 42.89495535 47.51626623 45.40828942 50 47.9375 C50.73283203 48.67709961 50.73283203 48.67709961 51.48046875 49.43164062 C52.65603525 50.61873229 53.82838826 51.80900498 55 53 C53.73203738 56.80388786 52.55237108 57.05814669 49.125 59 C42.40859918 63.09321938 37.33037942 68.29845297 32 74 C24.82057739 69.4543874 17.68068457 64.8542614 10.58203125 60.18359375 C9.168899 59.25426781 9.168899 59.25426781 7.72721863 58.3061676 C5.7547618 57.00838161 3.78262225 55.71011327 1.81079102 54.41137695 C-1.1889913 52.43651823 -4.19115268 50.46531118 -7.19335938 48.49414062 C-9.12254355 47.22418271 -11.05158494 45.95400784 -12.98046875 44.68359375 C-13.86711716 44.10218124 -14.75376556 43.52076874 -15.6672821 42.92173767 C-20.920121 39.45496357 -26.01524435 35.84276159 -31 32 C-29.48460556 26.83388259 -26.24941783 23.61782431 -22.625 19.8125 C-22.00520264 19.15483643 -21.38540527 18.49717285 -20.74682617 17.81958008 C-14.40921709 11.20238248 -7.63909992 5.09273328 0 0 Z " fill="#E0241A" transform="translate(64,29)"/>
<path d="M0 0 C4.19989311 0.91663197 7.61465936 2.87563196 11.3125 5 C11.93189453 5.34933594 12.55128906 5.69867188 13.18945312 6.05859375 C19.85472785 9.84672432 26.40707279 13.82761431 32.97476196 17.78143311 C36.32362823 19.7964148 39.6756327 21.80616146 43.02734375 23.81640625 C44.34571836 24.60739649 45.66407779 25.39841202 46.98242188 26.18945312 C47.95586548 26.77351929 47.95586548 26.77351929 48.94897461 27.36938477 C54.29931641 30.57958984 59.6496582 33.78979492 65 37 C63.73851611 40.86792978 62.35491786 44.473158 60.5625 48.125 C58.19272657 53.19910311 56.8218932 58.19366315 55.67578125 63.6640625 C55.34126953 64.82035156 55.34126953 64.82035156 55 66 C53 67 53 67 51.03384399 66.41481018 C50.22812958 66.08142136 49.42241516 65.74803253 48.59228516 65.40454102 C47.67597321 65.02987198 46.75966125 64.65520294 45.81558228 64.2691803 C44.81683075 63.85163986 43.81807922 63.43409943 42.7890625 63.00390625 C41.75171967 62.57754379 40.71437683 62.15118134 39.64559937 61.7118988 C36.30235124 60.33602782 32.96361192 58.94957824 29.625 57.5625 C26.36061561 56.21436737 23.09533521 54.86842167 19.83001709 53.52255249 C17.68301288 52.63730647 15.53640403 51.75110093 13.39019775 50.86392212 C3.62459959 46.83066425 -6.17942102 42.89717565 -16 39 C-15.49148157 34.91788229 -14.90687544 31.19484991 -13.3984375 27.36328125 C-13.07617188 26.54375977 -12.75390625 25.72423828 -12.421875 24.87988281 C-12.07640625 24.03264648 -11.7309375 23.18541016 -11.375 22.3125 C-11.02179687 21.43561523 -10.66859375 20.55873047 -10.3046875 19.65527344 C-7.43971755 12.71027933 -4.10220475 6.3071398 0 0 Z " fill="#E0241A" transform="translate(22,75)"/>
<path d="M0 0 C8.2061645 -0.18593837 16.41143913 -0.32779193 24.61919403 -0.41449738 C28.43113469 -0.45612782 32.24162718 -0.51252124 36.05273438 -0.60351562 C39.73574383 -0.69089413 43.41736714 -0.73836536 47.10133362 -0.75901794 C48.50165114 -0.77372074 49.90189863 -0.80243465 51.30162048 -0.84584045 C62.59213686 -1.18181278 62.59213686 -1.18181278 66.14318848 1.79907227 C66.7378894 2.5208667 67.33259033 3.24266113 67.9453125 3.98632812 C70.38995696 6.92130617 71.51420451 7.88936547 75.29699707 8.75085449 C79.43608091 9.01847163 83.5119449 9.05801497 87.65625 9 C89.16941406 9.00752833 90.68256433 9.01857095 92.19567871 9.03295898 C96.15486044 9.06126085 100.11241482 9.04219262 104.0715332 9.01287842 C108.1207107 8.9914052 112.1696019 9.0152517 116.21875 9.03515625 C124.146245 9.06751096 132.07259696 9.04976879 140 9 C138.63936771 10.63973635 137.26352434 12.2681338 135.83442688 13.84855652 C133.94007585 15.96229313 133.94007585 15.96229313 132.49015808 18.42549133 C129.77445975 22.14382301 127.22986858 24.51708933 122.61288834 25.51696396 C114.97728286 26.43358965 107.29062988 26.28611232 99.61328125 26.23046875 C97.10702047 26.2390769 94.60076719 26.25020846 92.0945282 26.26374817 C86.18343515 26.28376104 80.2737767 26.25678673 74.36284655 26.21358997 C68.98372446 26.17960114 63.60681929 26.21549108 58.22794372 26.26862639 C52.39008216 26.32403986 46.55341425 26.32322345 40.71538353 26.29921913 C38.23904524 26.29506629 35.76263365 26.30602007 33.28643227 26.33238792 C29.82585333 26.36252397 26.3715912 26.32867075 22.91137695 26.27807617 C21.89045456 26.29988953 20.86953217 26.32170288 19.81767273 26.34417725 C16.89015448 26.26138999 14.72115659 26.09222492 12 25 C9.29441112 21.95844469 7.6438657 18.70109275 6 15 C5.36731294 13.7499365 4.73451742 12.49992789 4.1015625 11.25 C3.61429688 10.1775 3.12703125 9.105 2.625 8 C2.12226563 6.906875 1.61953125 5.81375 1.1015625 4.6875 C0 2 0 2 0 0 Z " fill="#E0241B" transform="translate(11,214)"/>
<path d="M0 0 C3.9247998 0.34804671 6.82793046 1.80924475 10.21875 3.73828125 C11.72514038 4.58869995 11.72514038 4.58869995 13.26196289 5.45629883 C14.33051514 6.06884521 15.39906738 6.6813916 16.5 7.3125 C17.60915771 7.94115967 18.71831543 8.56981934 19.86108398 9.2175293 C23.24487892 11.13782627 26.62302998 13.06773106 30 15 C31.91786246 16.09393637 33.83582448 17.18769821 35.75390625 18.28125 C39.21817793 20.25819019 42.6800833 22.23919555 46.140625 24.22265625 C53.07035967 28.19022017 60.03514618 32.0944745 67 36 C67 42.6 67 49.2 67 56 C54.03187624 51.5169218 41.22715266 46.68276282 28.44165039 41.7043457 C25.17650388 40.43321919 21.90966786 39.16651314 18.64257812 37.90039062 C-1.42451514 30.11130668 -1.42451514 30.11130668 -11 26 C-9.09689123 16.99770506 -6.71698393 6.71698393 0 0 Z " fill="#E0241A" transform="translate(101,121)"/>
<path d="M0 0 C2.44515064 1.56269682 4.28835598 3.34053979 6.31738281 5.41674805 C7.125625 6.23594727 7.93386719 7.05514648 8.76660156 7.89916992 C9.60320312 8.75704102 10.43980469 9.61491211 11.30175781 10.4987793 C18.17300953 17.52886166 18.17300953 17.52886166 25.41113281 24.17456055 C26.37019531 25.01482788 26.37019531 25.01482788 27.34863281 25.87207031 C28.69603715 27.01068106 30.10675173 28.07432521 31.53613281 29.1081543 C34.13350321 32.88371333 33.46374307 37.11291495 33.30175781 41.5612793 C33.28371094 42.49713867 33.26566406 43.43299805 33.24707031 44.3972168 C33.20001454 46.70294945 33.13429494 49.00658875 33.05175781 51.3112793 C29.60622199 50.03083793 26.64952062 48.54622688 23.58789062 46.51733398 C22.73640442 45.95624939 21.88491821 45.39516479 21.00762939 44.81707764 C20.09922302 44.21188293 19.19081665 43.60668823 18.25488281 42.9831543 C17.30667664 42.35652893 16.35847046 41.72990356 15.38153076 41.08428955 C12.35211799 39.08084471 9.32691137 37.07114819 6.30175781 35.0612793 C4.28119644 33.72362881 2.26036592 32.3863848 0.23925781 31.04956055 C-8.16728923 25.48619386 -16.562778 19.90637006 -24.94824219 14.3112793 C-21.81218706 7.21491385 -12.32570919 3.11182304 -5.38574219 0.1862793 C-1.94824219 -0.6887207 -1.94824219 -0.6887207 0 0 Z " fill="#E0241A" transform="translate(134.9482421875,98.688720703125)"/>
</svg>
