<?xml version="1.0" encoding="UTF-8"?>
<svg version="1.1" xmlns="http://www.w3.org/2000/svg" width="128" height="152">
<path d="M0 0 C42.24 0 84.48 0 128 0 C128 50.16 128 100.32 128 152 C85.76 152 43.52 152 0 152 C0 101.84 0 51.68 0 0 Z " fill="#FDFDFD" transform="translate(0,0)"/>
<path d="M0 0 C3.62834995 0.0362835 5.04084903 0.19049527 8.25 2.0625 C11.35660255 5.55742787 12.29890843 6.96751805 12.125 11.75 C10.87154295 16.85336084 7.97814524 19.77076202 4.25 23.3125 C6.044375 23.18875 6.044375 23.18875 7.875 23.0625 C12.35407241 23.0625 14.81159946 24.36529954 18.25 27.3125 C21.49507374 32.20397653 20.58414801 38.19676445 20.56567383 43.83959961 C20.56250449 45.87212292 20.58602515 47.90320235 20.61132812 49.93554688 C20.61197266 51.21623047 20.61261719 52.49691406 20.61328125 53.81640625 C20.61626221 54.99017822 20.61924316 56.1639502 20.62231445 57.37329102 C20.25 60.3125 20.25 60.3125 19.10229492 62.28100586 C16.31526142 63.83303124 14.2514456 63.0461867 11.25 62.3125 C11.26571045 63.13975586 11.2814209 63.96701172 11.29760742 64.81933594 C11.35996304 68.56698777 11.39899346 72.31453045 11.4375 76.0625 C11.46263672 77.36445312 11.48777344 78.66640625 11.51367188 80.0078125 C11.52333984 81.25820312 11.53300781 82.50859375 11.54296875 83.796875 C11.5586792 84.94897461 11.57438965 86.10107422 11.59057617 87.28808594 C11.21591952 90.61514442 10.6432661 92.00079467 8.25 94.3125 C4.79429807 94.67246895 2.54975529 94.41241843 -0.75 93.3125 C-3.0906065 93.59019908 -5.42624308 93.91789977 -7.75 94.3125 C-10.95137311 90.87111622 -11.10599742 88.41897726 -11.04296875 83.796875 C-11.03330078 82.54648438 -11.02363281 81.29609375 -11.01367188 80.0078125 C-10.98853516 78.70585938 -10.96339844 77.40390625 -10.9375 76.0625 C-10.92396484 74.74507813 -10.91042969 73.42765625 -10.89648438 72.0703125 C-10.86112551 68.81729679 -10.81177033 65.565104 -10.75 62.3125 C-12.1421875 62.6528125 -12.1421875 62.6528125 -13.5625 63 C-16.75 63.3125 -16.75 63.3125 -18.59790039 62.29248047 C-20.2913816 59.38209001 -20.15656699 56.98547035 -20.18359375 53.6328125 C-20.1888356 52.98303436 -20.19407745 52.33325623 -20.19947815 51.66378784 C-20.20589431 50.29035875 -20.20456648 48.91687468 -20.19604492 47.54345703 C-20.18755535 45.45114104 -20.21625962 43.36157601 -20.24804688 41.26953125 C-20.2496597 39.93229248 -20.24907981 38.59504891 -20.24609375 37.2578125 C-20.24794678 36.04625488 -20.2497998 34.83469727 -20.25170898 33.58642578 C-19.56828217 29.12669169 -17.56684086 26.67513064 -14 24 C-10.55286602 22.94670906 -7.34507203 23.19266427 -3.75 23.3125 C-3.75 22.6525 -3.75 21.9925 -3.75 21.3125 C-4.348125 21.065 -4.94625 20.8175 -5.5625 20.5625 C-8.26690582 19.01712524 -9.31742238 18.10602635 -10.75 15.3125 C-11.28518097 12.20612348 -11.36300997 9.41068553 -10.75 6.3125 C-8.3125 3.3125 -8.3125 3.3125 -5.75 1.3125 C-4.10962605 -0.32787395 -2.25523159 0.06338669 0 0 Z " fill="#F5F5F5" transform="translate(36.75,36.6875)"/>
<path d="M0 0 C7.63330498 6.68079552 12.33079512 14.7971326 13.6328125 24.91796875 C14.03710611 34.90793344 11.3704472 44.40373364 4.94921875 52.1640625 C-1.8510719 59.41875045 -8.68401166 64.72698984 -18.74609375 65.97265625 C-21.38199333 66.03921937 -23.98757971 66.06833036 -26.62109375 66.03515625 C-27.30945313 66.03064453 -27.9978125 66.02613281 -28.70703125 66.02148438 C-30.3867571 66.00981961 -32.0664375 65.99188896 -33.74609375 65.97265625 C-33.74609375 64.98265625 -33.74609375 63.99265625 -33.74609375 62.97265625 C-28.79609375 62.47765625 -28.79609375 62.47765625 -23.74609375 61.97265625 C-26.71609375 61.64265625 -29.68609375 61.31265625 -32.74609375 60.97265625 C-33.07609375 59.98265625 -33.40609375 58.99265625 -33.74609375 57.97265625 C-26.75591571 57.15713548 -19.76133523 56.53055193 -12.74609375 55.97265625 C-12.74609375 54.65265625 -12.74609375 53.33265625 -12.74609375 51.97265625 C-11.13734375 51.87984375 -11.13734375 51.87984375 -9.49609375 51.78515625 C-5.66274123 51.29422105 -5.66274123 51.29422105 -3.30859375 48.66015625 C-1.41101345 45.91443605 -1.41101345 45.91443605 -1.74609375 41.97265625 C-0.42609375 41.97265625 0.89390625 41.97265625 2.25390625 41.97265625 C2.91390625 38.01265625 3.57390625 34.05265625 4.25390625 29.97265625 C3.59390625 29.97265625 2.93390625 29.97265625 2.25390625 29.97265625 C2.58390625 28.98265625 2.91390625 27.99265625 3.25390625 26.97265625 C3.40835955 22.80241707 3.23779396 19.03119307 2.25390625 14.97265625 C0.93390625 14.97265625 -0.38609375 14.97265625 -1.74609375 14.97265625 C-1.80796875 14.25078125 -1.86984375 13.52890625 -1.93359375 12.78515625 C-3.02334474 9.0129413 -4.69660486 7.39838605 -7.74609375 4.97265625 C-10.45773153 4.55278679 -10.45773153 4.55278679 -12.74609375 4.97265625 C-13.24109375 3.48765625 -13.24109375 3.48765625 -13.74609375 1.97265625 C-16.53781614 0.93949137 -16.53781614 0.93949137 -19.80859375 0.28515625 C-20.91332031 0.03378906 -22.01804687 -0.21757813 -23.15625 -0.4765625 C-24.01089844 -0.65832031 -24.86554688 -0.84007812 -25.74609375 -1.02734375 C-25.74609375 -0.36734375 -25.74609375 0.29265625 -25.74609375 0.97265625 C-26.40609375 0.97265625 -27.06609375 0.97265625 -27.74609375 0.97265625 C-27.74609375 0.31265625 -27.74609375 -0.34734375 -27.74609375 -1.02734375 C-29.72869974 -0.60570356 -31.7071662 -0.16455597 -33.68359375 0.28515625 C-34.78574219 0.52878906 -35.88789062 0.77242187 -37.0234375 1.0234375 C-38.37115234 1.49330078 -38.37115234 1.49330078 -39.74609375 1.97265625 C-40.07609375 2.96265625 -40.40609375 3.95265625 -40.74609375 4.97265625 C-43.71609375 4.47765625 -43.71609375 4.47765625 -46.74609375 3.97265625 C-46.74609375 3.31265625 -46.74609375 2.65265625 -46.74609375 1.97265625 C-44.9565619 1.13474836 -43.1643968 0.30246229 -41.37109375 -0.52734375 C-40.37335937 -0.99140625 -39.375625 -1.45546875 -38.34765625 -1.93359375 C-35.74609375 -3.02734375 -35.74609375 -3.02734375 -33.74609375 -3.02734375 C-33.74609375 -3.68734375 -33.74609375 -4.34734375 -33.74609375 -5.02734375 C-39.7412921 -4.01482136 -43.84218047 -2.61557298 -48.74609375 0.97265625 C-49.40609375 0.97265625 -50.06609375 0.97265625 -50.74609375 0.97265625 C-50.74609375 -0.01734375 -50.74609375 -1.00734375 -50.74609375 -2.02734375 C-48.854169 -3.01404134 -46.95737397 -3.99140395 -45.05859375 -4.96484375 C-43.47498047 -5.78275391 -43.47498047 -5.78275391 -41.859375 -6.6171875 C-28.01492223 -12.88801241 -11.68897734 -8.83709202 0 0 Z " fill="#E7E7E7" transform="translate(95.74609375,33.02734375)"/>
<path d="M0 0 C3.62834995 0.0362835 5.04084903 0.19049527 8.25 2.0625 C11.35660255 5.55742787 12.29890843 6.96751805 12.125 11.75 C10.87154295 16.85336084 7.97814524 19.77076202 4.25 23.3125 C6.044375 23.18875 6.044375 23.18875 7.875 23.0625 C12.35407241 23.0625 14.81159946 24.36529954 18.25 27.3125 C21.49507374 32.20397653 20.58414801 38.19676445 20.56567383 43.83959961 C20.56250449 45.87212292 20.58602515 47.90320235 20.61132812 49.93554688 C20.61197266 51.21623047 20.61261719 52.49691406 20.61328125 53.81640625 C20.61626221 54.99017822 20.61924316 56.1639502 20.62231445 57.37329102 C20.25 60.3125 20.25 60.3125 19.10229492 62.28100586 C16.31526142 63.83303124 14.2514456 63.0461867 11.25 62.3125 C11.26571045 63.13975586 11.2814209 63.96701172 11.29760742 64.81933594 C11.35996304 68.56698777 11.39899346 72.31453045 11.4375 76.0625 C11.46263672 77.36445312 11.48777344 78.66640625 11.51367188 80.0078125 C11.52333984 81.25820312 11.53300781 82.50859375 11.54296875 83.796875 C11.5586792 84.94897461 11.57438965 86.10107422 11.59057617 87.28808594 C11.21591952 90.61514442 10.6432661 92.00079467 8.25 94.3125 C4.79429807 94.67246895 2.54975529 94.41241843 -0.75 93.3125 C-3.0906065 93.59019908 -5.42624308 93.91789977 -7.75 94.3125 C-10.95137311 90.87111622 -11.10599742 88.41897726 -11.04296875 83.796875 C-11.03330078 82.54648438 -11.02363281 81.29609375 -11.01367188 80.0078125 C-10.98853516 78.70585938 -10.96339844 77.40390625 -10.9375 76.0625 C-10.92396484 74.74507813 -10.91042969 73.42765625 -10.89648438 72.0703125 C-10.86112551 68.81729679 -10.81177033 65.565104 -10.75 62.3125 C-12.1421875 62.6528125 -12.1421875 62.6528125 -13.5625 63 C-16.75 63.3125 -16.75 63.3125 -18.59790039 62.29248047 C-20.2913816 59.38209001 -20.15656699 56.98547035 -20.18359375 53.6328125 C-20.1888356 52.98303436 -20.19407745 52.33325623 -20.19947815 51.66378784 C-20.20589431 50.29035875 -20.20456648 48.91687468 -20.19604492 47.54345703 C-20.18755535 45.45114104 -20.21625962 43.36157601 -20.24804688 41.26953125 C-20.2496597 39.93229248 -20.24907981 38.59504891 -20.24609375 37.2578125 C-20.24794678 36.04625488 -20.2497998 34.83469727 -20.25170898 33.58642578 C-19.56828217 29.12669169 -17.56684086 26.67513064 -14 24 C-10.55286602 22.94670906 -7.34507203 23.19266427 -3.75 23.3125 C-3.75 22.6525 -3.75 21.9925 -3.75 21.3125 C-4.348125 21.065 -4.94625 20.8175 -5.5625 20.5625 C-8.26690582 19.01712524 -9.31742238 18.10602635 -10.75 15.3125 C-11.28518097 12.20612348 -11.36300997 9.41068553 -10.75 6.3125 C-8.3125 3.3125 -8.3125 3.3125 -5.75 1.3125 C-4.10962605 -0.32787395 -2.25523159 0.06338669 0 0 Z M-1.75 22.3125 C-2.08 22.9725 -2.41 23.6325 -2.75 24.3125 C-5.19152777 24.84149768 -7.63180259 25.14177129 -10.109375 25.45703125 C-13.74737629 26.63561451 -15.32039962 28.3800941 -17.75 31.3125 C-18.44853007 34.4715864 -18.44853007 34.4715864 -18.2734375 37.890625 C-18.26183594 39.13328125 -18.25023438 40.3759375 -18.23828125 41.65625 C-18.20089844 42.9453125 -18.16351562 44.234375 -18.125 45.5625 C-18.11082031 46.86703125 -18.09664062 48.1715625 -18.08203125 49.515625 C-18.54024723 55.29445001 -18.54024723 55.29445001 -16.75 60.3125 C-14.25 60.47916667 -14.25 60.47916667 -11.75 60.3125 C-10.4994687 59.28535339 -10.4994687 59.28535339 -10.63647461 57.08764648 C-10.64171143 56.12930908 -10.64694824 55.17097168 -10.65234375 54.18359375 C-10.65556641 53.14912109 -10.65878906 52.11464844 -10.66210938 51.04882812 C-10.67048828 49.96021484 -10.67886719 48.87160156 -10.6875 47.75 C-10.69201172 46.65751953 -10.69652344 45.56503906 -10.70117188 44.43945312 C-10.71300174 41.73041505 -10.72948457 39.02148401 -10.75 36.3125 C-10.09 36.6425 -9.43 36.9725 -8.75 37.3125 C-8.42 55.1325 -8.09 72.9525 -7.75 91.3125 C-6.1 91.6425 -4.45 91.9725 -2.75 92.3125 C-0.48160023 90.47294022 -0.48160023 90.47294022 -0.52294922 87.69873047 C-0.53342285 86.61994629 -0.54389648 85.54116211 -0.5546875 84.4296875 C-0.56113281 83.26308594 -0.56757812 82.09648438 -0.57421875 80.89453125 C-0.59097656 79.67121094 -0.60773437 78.44789062 -0.625 77.1875 C-0.63402344 75.95644531 -0.64304687 74.72539063 -0.65234375 73.45703125 C-0.67597452 70.40866185 -0.70891946 67.36067618 -0.75 64.3125 C-0.09 64.3125 0.57 64.3125 1.25 64.3125 C1.23952637 65.08964355 1.22905273 65.86678711 1.21826172 66.66748047 C1.17679718 70.174121 1.15070422 73.68071006 1.125 77.1875 C1.10824219 78.41082031 1.09148438 79.63414063 1.07421875 80.89453125 C1.06777344 82.06113281 1.06132813 83.22773437 1.0546875 84.4296875 C1.04421387 85.50847168 1.03374023 86.58725586 1.02294922 87.69873047 C0.98160023 90.47294022 0.98160023 90.47294022 3.25 92.3125 C6.55683466 92.02266731 6.55683466 92.02266731 9.25 90.3125 C9.34353163 88.62448015 9.36744791 86.93254793 9.36352539 85.24194336 C9.36341209 83.62037575 9.36341209 83.62037575 9.36329651 81.96604919 C9.35813522 80.7900264 9.35297394 79.6140036 9.34765625 78.40234375 C9.3462413 77.20517227 9.34482635 76.00800079 9.34336853 74.77455139 C9.33774979 70.93300934 9.32519411 67.09152457 9.3125 63.25 C9.30748741 60.65299563 9.30292409 58.05599035 9.29882812 55.45898438 C9.28777427 49.07680321 9.27101792 42.6946557 9.25 36.3125 C9.91 36.3125 10.57 36.3125 11.25 36.3125 C11.24476318 37.00400146 11.23952637 37.69550293 11.23413086 38.40795898 C11.213425 41.52196352 11.20036037 44.63595361 11.1875 47.75 C11.17912109 48.83861328 11.17074219 49.92722656 11.16210938 51.04882812 C11.15888672 52.08330078 11.15566406 53.11777344 11.15234375 54.18359375 C11.14710693 55.14193115 11.14187012 56.10026855 11.13647461 57.08764648 C10.9994687 59.28535339 10.9994687 59.28535339 12.25 60.3125 C14.75 60.47916667 14.75 60.47916667 17.25 60.3125 C19.96032401 57.60217599 18.58377036 49.76632649 18.625 46.125 C18.66238281 44.89201172 18.69976562 43.65902344 18.73828125 42.38867188 C19.00570977 35.02268423 19.00570977 35.02268423 16.0546875 28.52734375 C13.16385789 26.24447413 11.6124891 25.47350175 8 25.0625 C5.359375 24.734375 5.359375 24.734375 3.25 24.3125 C2.92 23.6525 2.59 22.9925 2.25 22.3125 C0.93 22.3125 -0.39 22.3125 -1.75 22.3125 Z " fill="#313131" transform="translate(36.75,36.6875)"/>
<path d="M0 0 C7.63330498 6.68079552 12.33079512 14.7971326 13.6328125 24.91796875 C14.03710611 34.90793344 11.3704472 44.40373364 4.94921875 52.1640625 C-1.8510719 59.41875045 -8.68401166 64.72698984 -18.74609375 65.97265625 C-21.38199333 66.03921937 -23.98757971 66.06833036 -26.62109375 66.03515625 C-27.30945313 66.03064453 -27.9978125 66.02613281 -28.70703125 66.02148438 C-30.3867571 66.00981961 -32.0664375 65.99188896 -33.74609375 65.97265625 C-33.74609375 65.31265625 -33.74609375 64.65265625 -33.74609375 63.97265625 C-32.8025 63.95847656 -31.85890625 63.94429688 -30.88671875 63.9296875 C-19.59434566 63.51019171 -8.1221456 61.26279988 0.25390625 52.97265625 C7.95955934 43.29494029 10.5133389 34.2027077 9.55566406 22.06591797 C8.47298763 14.55550716 3.93302157 7.55440247 -1.625 2.50390625 C-10.91483027 -4.20256422 -20.39196389 -6.93958374 -31.74609375 -6.02734375 C-38.28866574 -4.8200306 -43.42055191 -2.98736204 -48.74609375 0.97265625 C-49.40609375 0.97265625 -50.06609375 0.97265625 -50.74609375 0.97265625 C-50.74609375 -0.01734375 -50.74609375 -1.00734375 -50.74609375 -2.02734375 C-48.854169 -3.01404134 -46.95737397 -3.99140395 -45.05859375 -4.96484375 C-43.47498047 -5.78275391 -43.47498047 -5.78275391 -41.859375 -6.6171875 C-28.01492223 -12.88801241 -11.68897734 -8.83709202 0 0 Z " fill="#3E3E3E" transform="translate(95.74609375,33.02734375)"/>
<path d="M0 0 C8.40457826 4.93211996 13.78728542 10.48711535 17.51171875 19.62890625 C19.09368131 28.80428912 18.76521653 37.33485236 13.8125 45.4140625 C7.98181494 53.6015074 0.14657598 59.38860075 -9.86328125 61.25390625 C-11.94562717 61.32133973 -14.02996682 61.33905097 -16.11328125 61.31640625 C-17.1909375 61.30738281 -18.26859375 61.29835938 -19.37890625 61.2890625 C-20.60867187 61.27166016 -20.60867187 61.27166016 -21.86328125 61.25390625 C-22.35828125 59.76890625 -22.35828125 59.76890625 -22.86328125 58.25390625 C-15.87310321 57.43838548 -8.87852273 56.81180193 -1.86328125 56.25390625 C-1.86328125 54.93390625 -1.86328125 53.61390625 -1.86328125 52.25390625 C-0.25453125 52.16109375 -0.25453125 52.16109375 1.38671875 52.06640625 C5.22007127 51.57547105 5.22007127 51.57547105 7.57421875 48.94140625 C9.47179905 46.19568605 9.47179905 46.19568605 9.13671875 42.25390625 C10.45671875 42.25390625 11.77671875 42.25390625 13.13671875 42.25390625 C13.79671875 38.29390625 14.45671875 34.33390625 15.13671875 30.25390625 C14.47671875 30.25390625 13.81671875 30.25390625 13.13671875 30.25390625 C13.46671875 29.26390625 13.79671875 28.27390625 14.13671875 27.25390625 C14.29117205 23.08366707 14.12060646 19.31244307 13.13671875 15.25390625 C11.81671875 15.25390625 10.49671875 15.25390625 9.13671875 15.25390625 C9.07484375 14.53203125 9.01296875 13.81015625 8.94921875 13.06640625 C7.85946776 9.2941913 6.18620764 7.67963605 3.13671875 5.25390625 C0.42508097 4.83403679 0.42508097 4.83403679 -1.86328125 5.25390625 C-2.35828125 3.76890625 -2.35828125 3.76890625 -2.86328125 2.25390625 C-5.65500364 1.22074137 -5.65500364 1.22074137 -8.92578125 0.56640625 C-10.03050781 0.31503906 -11.13523437 0.06367187 -12.2734375 -0.1953125 C-13.12808594 -0.37707031 -13.98273438 -0.55882812 -14.86328125 -0.74609375 C-14.86328125 -0.08609375 -14.86328125 0.57390625 -14.86328125 1.25390625 C-15.52328125 1.25390625 -16.18328125 1.25390625 -16.86328125 1.25390625 C-16.86328125 0.59390625 -16.86328125 -0.06609375 -16.86328125 -0.74609375 C-18.84588724 -0.32445356 -20.8243537 0.11669403 -22.80078125 0.56640625 C-23.90292969 0.81003906 -25.00507812 1.05367187 -26.140625 1.3046875 C-27.48833984 1.77455078 -27.48833984 1.77455078 -28.86328125 2.25390625 C-29.19328125 3.24390625 -29.52328125 4.23390625 -29.86328125 5.25390625 C-32.83328125 4.75890625 -32.83328125 4.75890625 -35.86328125 4.25390625 C-35.86328125 3.59390625 -35.86328125 2.93390625 -35.86328125 2.25390625 C-25.16401932 -4.21648973 -11.45961111 -5.58388521 0 0 Z " fill="#515151" transform="translate(84.86328125,32.74609375)"/>
<path d="M0 0 C0.99 0.33 1.98 0.66 3 1 C3.07420211 5.07502794 3.1286257 9.14979392 3.16479492 13.2253418 C3.17987397 14.61147919 3.2003405 15.99756894 3.22631836 17.38354492 C3.26273716 19.37658146 3.27813018 21.36996723 3.29296875 23.36328125 C3.3086792 24.56251221 3.32438965 25.76174316 3.34057617 26.99731445 C3 30 3 30 1.85668945 31.97729492 C-0.93437437 33.5146738 -3.0005097 32.73320874 -6 32 C-5.98428955 32.82725586 -5.9685791 33.65451172 -5.95239258 34.50683594 C-5.89003696 38.25448777 -5.85100654 42.00203045 -5.8125 45.75 C-5.78736328 47.05195312 -5.76222656 48.35390625 -5.73632812 49.6953125 C-5.72666016 50.94570312 -5.71699219 52.19609375 -5.70703125 53.484375 C-5.6913208 54.63647461 -5.67561035 55.78857422 -5.65942383 56.97558594 C-6.03408048 60.30264442 -6.6067339 61.68829467 -9 64 C-12.45570193 64.35996895 -14.70024471 64.09991843 -18 63 C-19.175625 63.185625 -20.35125 63.37125 -21.5625 63.5625 C-22.696875 63.706875 -23.83125 63.85125 -25 64 C-27.79212511 61.20787489 -27.35138075 58.54695711 -27.4140625 54.8046875 C-27.43342865 54.09724396 -27.4527948 53.38980042 -27.4727478 52.66091919 C-27.53257652 50.39906915 -27.57894101 48.1371683 -27.625 45.875 C-27.66317686 44.3424256 -27.70222842 42.80987272 -27.7421875 41.27734375 C-27.83828039 37.51840376 -27.92229849 33.75936332 -28 30 C-27.34 29.67 -26.68 29.34 -26 29 C-25.97494385 29.89831543 -25.9498877 30.79663086 -25.92407227 31.72216797 C-25.82901307 35.05074869 -25.72977579 38.37914994 -25.62768555 41.70751953 C-25.58433769 43.1488762 -25.54266248 44.59028418 -25.50268555 46.03173828 C-25.44497912 48.10204541 -25.38128629 50.17209432 -25.31640625 52.2421875 C-25.27974854 53.4885498 -25.24309082 54.73491211 -25.20532227 56.01904297 C-25.19710521 58.92636942 -25.19710521 58.92636942 -24 61 C-21.525 60.505 -21.525 60.505 -19 60 C-18.67 51.42 -18.34 42.84 -18 34 C-17.34 34 -16.68 34 -16 34 C-15.67 42.58 -15.34 51.16 -15 60 C-13.35 60.33 -11.7 60.66 -10 61 C-8.32063825 59.32063825 -8.83212121 57.23489172 -8.79467773 54.92944336 C-8.77473251 53.84839828 -8.75478729 52.76735321 -8.73423767 51.65354919 C-8.71752518 50.4775264 -8.70081268 49.3015036 -8.68359375 48.08984375 C-8.66281265 46.89267227 -8.64203156 45.69550079 -8.62062073 44.46205139 C-8.55499721 40.62059513 -8.49618097 36.77906799 -8.4375 32.9375 C-8.39432695 30.34048733 -8.35071307 27.74348194 -8.30664062 25.14648438 C-8.19930284 18.76439883 -8.09756069 12.38224207 -8 6 C-7.34 6 -6.68 6 -6 6 C-5.67 13.59 -5.34 21.18 -5 29 C-3.35 29 -1.7 29 0 29 C0 19.43 0 9.86 0 0 Z " fill="#303030" transform="translate(54,67)"/>
<path d="M0 0 C2.69990662 1.79993774 4.5418865 3.083773 6 6 C6.52457223 9.93429172 6.30690703 11.54458957 4.0625 14.875 C0.47034672 17.36751452 -1.61708799 17.74496707 -5.90625 17.48046875 C-8 17 -8 17 -10.5625 14.9375 C-12.39160679 11.19976004 -12.73397997 9.11028784 -12 5 C-8.32600983 0.88863005 -5.54784976 -1.06235421 0 0 Z " fill="#F8F8F8" transform="translate(40,39)"/>
<path d="M0 0 C0.66 0 1.32 0 2 0 C2.91342102 9.54017514 1.0312095 15.8921516 -4 24 C-4.38285156 24.61875 -4.76570313 25.2375 -5.16015625 25.875 C-8.63393231 30.65611113 -13.88145091 33.31395025 -19 36 C-19.62648438 36.34417969 -20.25296875 36.68835938 -20.8984375 37.04296875 C-27.45767953 40.09344594 -34.9369877 39.24830903 -42 39 C-42 38.67 -42 38.34 -42 38 C-41.03900391 37.94392578 -41.03900391 37.94392578 -40.05859375 37.88671875 C-34.49347795 37.46373677 -29.99670441 36.52797694 -25 34 C-24.05898437 33.5875 -23.11796875 33.175 -22.1484375 32.75 C-12.77850974 28.47191884 -7.19386101 23.47075207 -3 14 C-2.36502149 11.559383 -1.80258983 9.09878677 -1.3125 6.625 C-0.93544922 4.75714844 -0.93544922 4.75714844 -0.55078125 2.8515625 C-0.36902344 1.91054688 -0.18726563 0.96953125 0 0 Z " fill="#EAEAEA" transform="translate(104,58)"/>
<path d="M0 0 C0.33 0 0.66 0 1 0 C1.71522311 11.20516207 0.01938016 21.33995765 -7.3046875 30.19140625 C-14.10497815 37.4460942 -20.93791791 42.75433359 -31 44 C-33.63589958 44.06656312 -36.24148596 44.09567411 -38.875 44.0625 C-39.56335938 44.05798828 -40.25171875 44.05347656 -40.9609375 44.04882812 C-42.64066335 44.03716336 -44.32034375 44.01923271 -46 44 C-46 43.34 -46 42.68 -46 42 C-45.05640625 41.98582031 -44.1128125 41.97164062 -43.140625 41.95703125 C-31.84825191 41.53753546 -20.37605185 39.29014363 -12 31 C-5.71051821 23.1008878 -2.73113165 15.76156793 -2.30859375 5.671875 C-2 3 -2 3 0 0 Z " fill="#454545" transform="translate(108,55)"/>
<path d="M0 0 C0.99 0.33 1.98 0.66 3 1 C4.34830432 6.76093662 4.54991699 10.94542868 1.5625 16.1875 C-4.1812395 24.61782732 -11.21815186 29.51953591 -20.875 32.59765625 C-23.69271906 33.1311582 -26.38474728 33.09364405 -29.25 33.0625 C-30.32765625 33.05347656 -31.4053125 33.04445312 -32.515625 33.03515625 C-33.33546875 33.02355469 -34.1553125 33.01195312 -35 33 C-35.33 32.01 -35.66 31.02 -36 30 C-29.00982196 29.18447923 -22.01524148 28.55789568 -15 28 C-15 26.68 -15 25.36 -15 24 C-13.39125 23.9071875 -13.39125 23.9071875 -11.75 23.8125 C-7.91664748 23.3215648 -7.91664748 23.3215648 -5.5625 20.6875 C-3.6649197 17.9417798 -3.6649197 17.9417798 -4 14 C-2.68 14 -1.36 14 0 14 C0.66 10.04 1.32 6.08 2 2 C1.34 2 0.68 2 0 2 C0 1.34 0 0.68 0 0 Z " fill="#484848" transform="translate(98,61)"/>
<path d="M0 0 C0.99 0.33 1.98 0.66 3 1 C3 18.16 3 35.32 3 53 C2.67 53 2.34 53 2 53 C1.67 43.76 1.34 34.52 1 25 C1 34.57 1 44.14 1 54 C0.67 54 0.34 54 0 54 C0 44.76 0 35.52 0 26 C-1.98 26.33 -3.96 26.66 -6 27 C-6.66 26.34 -7.32 25.68 -8 25 C-7.505 23.515 -7.505 23.515 -7 22 C-6.67 22.33 -6.34 22.66 -6 23 C-4.35 23 -2.7 23 -1 23 C-0.67 15.41 -0.34 7.82 0 0 Z " fill="#5E5E5E" transform="translate(26,73)"/>
<path d="M0 0 C3.62834995 0.0362835 5.04084903 0.19049527 8.25 2.0625 C11.35660255 5.55742787 12.29890843 6.96751805 12.125 11.75 C11.17221101 15.62921231 10.05486172 17.50763828 7.25 20.3125 C3.55581799 21.543894 1.0443739 20.95682764 -2.75 20.3125 C-3.08 21.3025 -3.41 22.2925 -3.75 23.3125 C-3.75 22.6525 -3.75 21.9925 -3.75 21.3125 C-4.348125 21.065 -4.94625 20.8175 -5.5625 20.5625 C-8.26690582 19.01712524 -9.31742238 18.10602635 -10.75 15.3125 C-11.28518097 12.20612348 -11.36300997 9.41068553 -10.75 6.3125 C-8.3125 3.3125 -8.3125 3.3125 -5.75 1.3125 C-4.10962605 -0.32787395 -2.25523159 0.06338669 0 0 Z M-8.75 7.3125 C-9.48397997 11.42278784 -9.14160679 13.51226004 -7.3125 17.25 C-4.06809024 19.8613542 -2.02935781 20.03949155 2.0546875 19.796875 C5.69614806 18.99342107 7.20699788 17.34405153 9.25 14.3125 C9.9946324 10.34112719 9.62266878 8.87150317 7.375 5.5 C4.90678697 2.95919247 3.9863048 2.4129052 0.5 1.9375 C-3.99132722 2.45573006 -5.76304516 3.96995529 -8.75 7.3125 Z " fill="#3A3A3A" transform="translate(36.75,36.6875)"/>
<path d="M0 0 C0.33 0 0.66 0 1 0 C1.73704419 11.54702571 -0.25126583 21.22038044 -7.4375 30.4765625 C-9.15855928 32.1545953 -10.80638159 33.04501957 -13 34 C-12.02083009 31.14408777 -11.06960806 29.08352967 -9.125 26.75 C-4.01581861 20.1381182 -2.55161047 13.88255794 -2.2734375 5.6015625 C-2 3 -2 3 0 0 Z " fill="#4E4E4E" transform="translate(108,55)"/>
<path d="M0 0 C0.66 0 1.32 0 2 0 C2 7.59 2 15.18 2 23 C6.95 23 11.9 23 17 23 C17 23.66 17 24.32 17 25 C11.39 25 5.78 25 0 25 C0 16.75 0 8.5 0 0 Z " fill="#363636" transform="translate(68,38)"/>
<path d="M0 0 C0.75015381 0.00257812 1.50030762 0.00515625 2.27319336 0.0078125 C7.65538781 0.15538781 7.65538781 0.15538781 9.9375 2.4375 C6.9675 2.4375 3.9975 2.4375 0.9375 2.4375 C0.9375 3.0975 0.9375 3.7575 0.9375 4.4375 C0.2775 4.4375 -0.3825 4.4375 -1.0625 4.4375 C-1.0625 3.7775 -1.0625 3.1175 -1.0625 2.4375 C-3.04510599 2.85914019 -5.02357245 3.30028778 -7 3.75 C-8.10214844 3.99363281 -9.20429687 4.23726562 -10.33984375 4.48828125 C-11.68755859 4.95814453 -11.68755859 4.95814453 -13.0625 5.4375 C-13.3925 6.4275 -13.7225 7.4175 -14.0625 8.4375 C-17.0325 7.9425 -17.0325 7.9425 -20.0625 7.4375 C-20.0625 6.7775 -20.0625 6.1175 -20.0625 5.4375 C-13.43659381 1.4304725 -7.64271259 -0.03883246 0 0 Z " fill="#474747" transform="translate(69.0625,29.5625)"/>
<path d="M0 0 C-3.77222089 1.75163456 -6.666639 2.22490027 -10.8125 2.125 C-12.27623047 2.09792969 -12.27623047 2.09792969 -13.76953125 2.0703125 C-14.50558594 2.04710937 -15.24164063 2.02390625 -16 2 C-16 1.34 -16 0.68 -16 0 C-16.99 -0.33 -17.98 -0.66 -19 -1 C-12.81132958 -2.65031211 -5.65560762 -3.30454672 0 0 Z " fill="#D7D7D7" transform="translate(78,28)"/>
<path d="M0 0 C0 0.33 0 0.66 0 1 C-0.72445312 1.17015625 -1.44890625 1.3403125 -2.1953125 1.515625 C-7.95408347 2.95915692 -12.24614077 4.46507903 -17 8 C-17.66 8 -18.32 8 -19 8 C-19 7.01 -19 6.02 -19 5 C-6.51480638 -2.07289294 -6.51480638 -2.07289294 0 0 Z " fill="#474747" transform="translate(64,26)"/>
<path d="M0 0 C1.98 0.66 3.96 1.32 6 2 C5.67 3.65 5.34 5.3 5 7 C3.1875 7.625 3.1875 7.625 1 8 C0.01 7.34 -0.98 6.68 -2 6 C-1.34 4.02 -0.68 2.04 0 0 Z " fill="#8E8E8E" transform="translate(4,101)"/>
<path d="M0 0 C0.99 0.33 1.98 0.66 3 1 C4.01924246 7.21369499 4.62926746 11.48351346 1 17 C0.67 16.34 0.34 15.68 0 15 C-0.66 15 -1.32 15 -2 15 C-2.33 15.99 -2.66 16.98 -3 18 C-3.33 16.68 -3.66 15.36 -4 14 C-2.68 14 -1.36 14 0 14 C0.66 10.04 1.32 6.08 2 2 C1.34 2 0.68 2 0 2 C0 1.34 0 0.68 0 0 Z " fill="#5A5A5A" transform="translate(98,61)"/>
<path d="M0 0 C1.32 0.66 2.64 1.32 4 2 C4 3.32 4 4.64 4 6 C2.02 6.99 2.02 6.99 0 8 C-0.99 7.01 -1.98 6.02 -3 5 C-1.125 1.125 -1.125 1.125 0 0 Z " fill="#909090" transform="translate(56,132)"/>
<path d="M0 0 C0 0.99 0 1.98 0 3 C-3.96 3 -7.92 3 -12 3 C-12.33 2.01 -12.66 1.02 -13 0 C-8.37078475 -1.0161692 -4.65537393 -0.83796731 0 0 Z " fill="#555555" transform="translate(75,91)"/>
<path d="M0 0 C3.55003269 0.98612019 4.93395893 1.91967978 7.3125 4.8125 C8.98615784 7.97385369 9.4106003 9.50989741 9 13 C8.01 13 7.02 13 6 13 C5.7525 11.9275 5.505 10.855 5.25 9.75 C3.98470426 5.95411278 2.8930687 4.60376183 0 2 C0 1.34 0 0.68 0 0 Z " fill="#575757" transform="translate(40,37)"/>
<path d="M0 0 C0.33 0 0.66 0 1 0 C0.76827505 4.01656572 0.53342981 6.35341842 -2.0625 9.5 C-6.18432916 11.60476383 -8.51629923 10.91193914 -13 10 C-13.33 10.99 -13.66 11.98 -14 13 C-14 12.34 -14 11.68 -14 11 C-14.66 10.67 -15.32 10.34 -16 10 C-15.18015625 9.86464844 -14.3603125 9.72929688 -13.515625 9.58984375 C-7.34898398 8.57496282 -7.34898398 8.57496282 -2.3125 5.2421875 C-1.09500934 3.13909209 -1.09500934 3.13909209 0 0 Z " fill="#494949" transform="translate(47,47)"/>
<path d="M0 0 C-0.33 0.66 -0.66 1.32 -1 2 C-2.093125 2.309375 -3.18625 2.61875 -4.3125 2.9375 C-7.70495689 3.91498758 -9.33841878 4.83130419 -12 7 C-12.66 7 -13.32 7 -14 7 C-12.98929671 4.3354186 -12.0600516 3.04804128 -9.8125 1.25 C-6.37585024 -0.27739989 -3.72102151 -0.21888362 0 0 Z " fill="#434343" transform="translate(32,60)"/>
<path d="M0 0 C0 0.66 0 1.32 0 2 C-3.3 3.32 -6.6 4.64 -10 6 C-10.33 5.34 -10.66 4.68 -11 4 C-7.95841042 -0.56238437 -5.1474794 -0.11438843 0 0 Z " fill="#EBEBEB" transform="translate(62,28)"/>
<path d="M0 0 C0.99 0 1.98 0 3 0 C3 0.66 3 1.32 3 2 C3.66 2 4.32 2 5 2 C5 2.99 5 3.98 5 5 C4.34 5 3.68 5 3 5 C3 5.66 3 6.32 3 7 C2.01 7 1.02 7 0 7 C0 6.34 0 5.68 0 5 C-0.66 5 -1.32 5 -2 5 C-2 4.01 -2 3.02 -2 2 C-1.34 2 -0.68 2 0 2 C0 1.34 0 0.68 0 0 Z " fill="#8F8F8F" transform="translate(66,3)"/>
<path d="M0 0 C0.33 0 0.66 0 1 0 C1.16435547 0.90492187 1.16435547 0.90492187 1.33203125 1.828125 C2.50797128 7.93684987 2.50797128 7.93684987 6 13 C3.41851492 12.64393309 2.17954253 12.16671807 0.25 10.375 C-1.45142204 7.14229812 -1.27144036 4.59658476 -1 1 C-0.67 0.67 -0.34 0.34 0 0 Z " fill="#363636" transform="translate(27,44)"/>
<path d="M0 0 C2.12472576 -0.05386629 4.24983652 -0.09273071 6.375 -0.125 C7.55835937 -0.14820312 8.74171875 -0.17140625 9.9609375 -0.1953125 C13 0 13 0 15 2 C12.03 2 9.06 2 6 2 C6 2.66 6 3.32 6 4 C5.34 4 4.68 4 4 4 C4 3.01 4 2.02 4 1 C2.68 0.67 1.36 0.34 0 0 Z " fill="#343434" transform="translate(64,30)"/>
<path d="M0 0 C0.66 0 1.32 0 2 0 C1.91433603 2.912575 1.42089045 4.56798024 -0.625 6.66796875 C-2.38391375 8.16091772 -4.16313019 9.60436262 -6 11 C-5.26459235 7.66615196 -4.30130525 5.57746188 -2 3 C-1.34 3 -0.68 3 0 3 C0 2.01 0 1.02 0 0 Z " fill="#3B3B3B" transform="translate(96,76)"/>
<path d="M0 0 C0.66 0.66 1.32 1.32 2 2 C4.22128555 2.02308597 4.22128555 2.02308597 6.625 1.625 C7.44226562 1.51414062 8.25953125 1.40328125 9.1015625 1.2890625 C9.72804688 1.19367188 10.35453125 1.09828125 11 1 C11 1.99 11 2.98 11 4 C7.7 4.33 4.4 4.66 1 5 C0.34 4.01 -0.32 3.02 -1 2 C-0.67 1.34 -0.34 0.68 0 0 Z " fill="#3E3E3E" transform="translate(28,126)"/>
<path d="M0 0 C1.65 0.33 3.3 0.66 5 1 C4.34 2.65 3.68 4.3 3 6 C1.68 5.67 0.36 5.34 -1 5 C-0.67 3.35 -0.34 1.7 0 0 Z " fill="#919191" transform="translate(85,99)"/>
<path d="M0 0 C0.66 0.33 1.32 0.66 2 1 C2 4.63 2 8.26 2 12 C1.34 12 0.68 12 0 12 C0 10.35 0 8.7 0 7 C-0.66 6.67 -1.32 6.34 -2 6 C-1.34 6 -0.68 6 0 6 C0 4.02 0 2.04 0 0 Z " fill="#393939" transform="translate(101,55)"/>
<path d="M0 0 C2.07384637 2.28176413 2.98397191 3.44323483 3.07421875 6.578125 C2.94660156 7.45984375 2.81898437 8.3415625 2.6875 9.25 C2.50767578 10.58804688 2.50767578 10.58804688 2.32421875 11.953125 C2.21722656 12.62859375 2.11023438 13.3040625 2 14 C1.34 13.67 0.68 13.34 0 13 C0.020625 11.9275 0.04125 10.855 0.0625 9.75 C0.01345128 6.8070768 -0.28127127 4.77223939 -1 2 C-0.67 1.34 -0.34 0.68 0 0 Z " fill="#595959" transform="translate(99,47)"/>
<path d="M0 0 C1.65 0 3.3 0 5 0 C4.67 1.65 4.34 3.3 4 5 C2.68 5 1.36 5 0 5 C0 3.35 0 1.7 0 0 Z " fill="#9A9A9A" transform="translate(120,64)"/>
<path d="M0 0 C0 0.33 0 0.66 0 1 C-1.62171239 1.38897161 -3.24754925 1.76078298 -4.875 2.125 C-5.77992187 2.33382813 -6.68484375 2.54265625 -7.6171875 2.7578125 C-8.40351562 2.83773438 -9.18984375 2.91765625 -10 3 C-10.66 2.34 -11.32 1.68 -12 1 C-7.67265609 -1.22923777 -4.71599818 -0.92470553 0 0 Z " fill="#4D4D4D" transform="translate(64,26)"/>
<path d="M0 0 C2.79651501 1.46817038 3.43411431 2.40553901 4.5 5.3125 C0.62867972 4.73897107 -1.58172796 2.82545648 -4.5 0.3125 C-2.5 -0.6875 -2.5 -0.6875 0 0 Z " fill="#4C4C4C" transform="translate(51.5,61.6875)"/>
<path d="M0 0 C3.6875 0.875 3.6875 0.875 7 2 C6.01 2.495 6.01 2.495 5 3 C5.33 4.32 5.66 5.64 6 7 C5.34 7 4.68 7 4 7 C3.67 6.01 3.34 5.02 3 4 C-0.00847418 2.77479736 -0.00847418 2.77479736 -3 2 C-2.01 1.34 -1.02 0.68 0 0 Z " fill="#525252" transform="translate(79,31)"/>
<path d="M0 0 C0.66 0 1.32 0 2 0 C2 2.97 2 5.94 2 9 C1.01 9 0.02 9 -1 9 C-0.67 6.03 -0.34 3.06 0 0 Z " fill="#F9F9F9" transform="translate(104,58)"/>
<path d="M0 0 C1.65 1.65 3.3 3.3 5 5 C4.34 5.66 3.68 6.32 3 7 C1.35 5.02 -0.3 3.04 -2 1 C-1.34 0.67 -0.68 0.34 0 0 Z " fill="#555555" transform="translate(96,34)"/>
<path d="M0 0 C4.75 0.75 4.75 0.75 7 3 C6.67 3.99 6.34 4.98 6 6 C5.34 5.34 4.68 4.68 4 4 C1.93125966 3.3574765 1.93125966 3.3574765 0 3 C0 2.01 0 1.02 0 0 Z " fill="#3A3A3A" transform="translate(84,34)"/>
<path d="M0 0 C0.66 0.33 1.32 0.66 2 1 C1.67 2.98 1.34 4.96 1 7 C0.01 6.67 -0.98 6.34 -2 6 C-2 4.35 -2 2.7 -2 1 C-1.34 0.67 -0.68 0.34 0 0 Z " fill="#E1E1E1" transform="translate(104,66)"/>
<path d="M0 0 C1.98 0.495 1.98 0.495 4 1 C3.67 2.32 3.34 3.64 3 5 C1.68 4.67 0.36 4.34 -1 4 C-0.67 2.68 -0.34 1.36 0 0 Z " fill="#9B9B9B" transform="translate(46,144)"/>
<path d="M0 0 C0.66 0 1.32 0 2 0 C1.67 1.98 1.34 3.96 1 6 C0.67 5.34 0.34 4.68 0 4 C-0.66 4 -1.32 4 -2 4 C-2.33 4.99 -2.66 5.98 -3 7 C-3.33 5.68 -3.66 4.36 -4 3 C-2.68 3 -1.36 3 0 3 C0 2.01 0 1.02 0 0 Z " fill="#525252" transform="translate(98,72)"/>
<path d="M0 0 C0.99 0.33 1.98 0.66 3 1 C2.67 1.33 2.34 1.66 2 2 C2.66 2.33 3.32 2.66 4 3 C4.33 2.01 4.66 1.02 5 0 C5.33 1.32 5.66 2.64 6 4 C4.35 4.33 2.7 4.66 1 5 C0.67 3.35 0.34 1.7 0 0 Z " fill="#878787" transform="translate(17,39)"/>
<path d="M0 0 C1.32 0 2.64 0 4 0 C3.67 1.65 3.34 3.3 3 5 C1.68 4.34 0.36 3.68 -1 3 C-0.67 2.01 -0.34 1.02 0 0 Z " fill="#A0A0A0" transform="translate(80,7)"/>
<path d="M0 0 C0.99 0.66 1.98 1.32 3 2 C2.67 3.32 2.34 4.64 2 6 C0.68 5.67 -0.64 5.34 -2 5 C-2 4.34 -2 3.68 -2 3 C-1.34 3 -0.68 3 0 3 C0 2.01 0 1.02 0 0 Z " fill="#404040" transform="translate(96,43)"/>
<path d="M0 0 C0.99 0.33 1.98 0.66 3 1 C1.35 2.65 -0.3 4.3 -2 6 C-2.33 5.34 -2.66 4.68 -3 4 C-2.01 2.68 -1.02 1.36 0 0 Z " fill="#4C4C4C" transform="translate(29,39)"/>
</svg>
