<svg id="logosandtypes_com" xmlns="http://www.w3.org/2000/svg" viewBox="0 0 150 150.2" enable-background="new 0 0 150 150.2"><path d="M0 .2h150v150H0V.2z" fill="none"/><g><defs><filter id="a" filterUnits="userSpaceOnUse" x="12.9" y="12.7" width="123.2" height="123"><feColorMatrix values="1 0 0 0 0 0 1 0 0 0 0 0 1 0 0 0 0 0 1 0"/></filter></defs><mask maskUnits="userSpaceOnUse" x="12.9" y="12.7" width="123.2" height="123" id="b"><g filter="url(#a)"><path d="M12.9 12.7h585.2v123H12.9v-123z" fill-rule="evenodd" clip-rule="evenodd" fill="#fff"/></g></mask><path d="M88.7 101.6c2.1-1.2 4.1-2.6 5.9-4.1 1.2-.9 2.4-2.1 3.2-3.2 4.7-5.6 7.7-12.4 7.7-20 0-17.1-13.8-30.9-30.9-30.9-3.5 0-7.1.6-10 1.8L43 21.3c9.1-5.3 20-8.5 31.5-8.5 34.2 0 61.6 27.4 61.6 61.5 0 33.8-27.4 61.5-61.6 61.5-16.8 0-32.1-6.8-43.3-17.9h75.4l.6-.6-79.6-3.2-.6-.6h84.3l.3-.6-88.1-4.1-.3-.3h34.2c0-.2 17.4.4 31.3-6.9zm-70.2-1.5c-.3-1.2-.9-2.4-1.5-3.5h18.6l3.2 3.5h27.4l-5.9 6.2H26.5c-.9-3.3-4.1-5.9-8-6.2zm-2-5.6C14.1 88 13 81.3 13 74.2c0-4.1.3-7.9 1.2-11.8L43.9 73v1.2c0 7.1 2.4 13.8 6.8 19.1h.3c-2.7-4.7-4.1-10-4.1-15.6 0-1.2 0-2.4.3-3.5L79 85.4v9.1H16.5zm62.4-20.9L54.5 57.4c2.9-3.5 6.8-6.2 11.2-7.9L79 62.7v10.9zm0 10.6L47.4 72.1c.9-4.7 2.9-9.4 5.9-13.2l25.6 16.2v9.1zM43.9 71L14.7 59.8c1.8-7.1 4.4-13.5 8.3-19.4l26.2 16.2c-3 4.1-4.7 9.1-5.3 14.4zm6.7-16.2L25 37.7c4.1-5.6 9.1-10.6 15-14.4L62.1 46c-4.4 2-8.5 5-11.5 8.8z" mask="url(#b)" fill-rule="evenodd" clip-rule="evenodd" fill="#e82934"/></g></svg>